<svg width="17" height="16" viewBox="0 0 17 16" fill="none" xmlns="http://www.w3.org/2000/svg">
<path d="M10.5 2.99998C10.7373 2.99998 10.9693 2.91201 11.1667 2.74718C11.364 2.58236 11.5178 2.34809 11.6087 2.074C11.6995 1.79992 11.7232 1.49832 11.6769 1.20734C11.6306 0.916372 11.5164 0.649098 11.3485 0.439319C11.1807 0.22954 10.9669 0.0866791 10.7341 0.0288013C10.5013 -0.0290765 10.2601 0.000628471 10.0408 0.11416C9.82151 0.227691 9.6341 0.41995 9.50224 0.666624C9.37038 0.913298 9.3 1.20331 9.3 1.49998C9.3 1.8978 9.42643 2.27933 9.65147 2.56064C9.87652 2.84194 10.1817 2.99998 10.5 2.99998ZM10.4 6.78123C10.5419 6.92323 10.7183 7.00041 10.9 6.99998H12.5C12.7122 6.99998 12.9157 6.89462 13.0657 6.70709C13.2157 6.51955 13.3 6.2652 13.3 5.99998C13.3 5.73476 13.2157 5.48041 13.0657 5.29287C12.9157 5.10534 12.7122 4.99998 12.5 4.99998H11.1805L9.4 3.21873C9.25468 3.0729 9.07314 2.99519 8.88681 2.99907C8.70048 3.00295 8.5211 3.08818 8.37975 3.23998L5.57975 6.23998C5.48596 6.34049 5.41207 6.46679 5.36387 6.60898C5.31567 6.75117 5.29447 6.90538 5.30193 7.05952C5.30939 7.21366 5.34531 7.36355 5.40687 7.49744C5.46843 7.63133 5.55396 7.74558 5.65675 7.83123L7.7 9.53498V13C7.7 13.2652 7.78429 13.5195 7.93432 13.7071C8.08435 13.8946 8.28783 14 8.5 14C8.71217 14 8.91566 13.8946 9.06569 13.7071C9.21572 13.5195 9.3 13.2652 9.3 13V8.99998C9.29998 8.83538 9.26745 8.67333 9.2053 8.52822C9.14316 8.3831 9.05332 8.25941 8.94375 8.1681L7.90975 7.30654L9.366 5.74654L10.4 6.78123ZM13.3 7.99998C12.6671 7.99998 12.0484 8.23458 11.5222 8.6741C10.9959 9.11363 10.5858 9.73834 10.3436 10.4692C10.1014 11.2002 10.038 12.0044 10.1615 12.7803C10.285 13.5563 10.5897 14.269 11.0373 14.8284C11.4848 15.3878 12.055 15.7688 12.6757 15.9231C13.2965 16.0775 13.9399 15.9982 14.5246 15.6955C15.1093 15.3927 15.6091 14.8801 15.9607 14.2223C16.3123 13.5645 16.5 12.7911 16.5 12C16.5 10.9391 16.1629 9.9217 15.5627 9.17155C14.9626 8.42141 14.1487 7.99998 13.3 7.99998ZM13.3 14C12.9836 14 12.6742 13.8827 12.4111 13.6629C12.148 13.4432 11.9429 13.1308 11.8218 12.7653C11.7007 12.3999 11.669 11.9978 11.7307 11.6098C11.7925 11.2218 11.9449 10.8655 12.1686 10.5858C12.3924 10.3061 12.6775 10.1156 12.9879 10.0384C13.2982 9.96124 13.6199 10.0008 13.9123 10.1522C14.2047 10.3036 14.4545 10.5599 14.6304 10.8888C14.8062 11.2177 14.9 11.6044 14.9 12C14.9 12.5304 14.7314 13.0391 14.4314 13.4142C14.1313 13.7893 13.7243 14 13.3 14ZM3.7 7.99998C3.0671 7.99998 2.44841 8.23458 1.92218 8.6741C1.39594 9.11363 0.985787 9.73834 0.743587 10.4692C0.501386 11.2002 0.438016 12.0044 0.561489 12.7803C0.684961 13.5563 0.989732 14.269 1.43726 14.8284C1.88479 15.3878 2.45497 15.7688 3.07571 15.9231C3.69645 16.0775 4.33986 15.9982 4.92459 15.6955C5.50931 15.3927 6.00908 14.8801 6.3607 14.2223C6.71233 13.5645 6.9 12.7911 6.9 12C6.9 10.9391 6.56286 9.9217 5.96274 9.17155C5.36263 8.42141 4.54869 7.99998 3.7 7.99998ZM3.7 14C3.38355 14 3.07421 13.8827 2.81109 13.6629C2.54797 13.4432 2.34289 13.1308 2.22179 12.7653C2.10069 12.3999 2.06901 11.9978 2.13075 11.6098C2.19248 11.2218 2.34487 10.8655 2.56863 10.5858C2.79239 10.3061 3.07749 10.1156 3.38786 10.0384C3.69823 9.96124 4.01993 10.0008 4.3123 10.1522C4.60466 10.3036 4.85454 10.5599 5.03035 10.8888C5.20616 11.2177 5.3 11.6044 5.3 12C5.3 12.5304 5.13143 13.0391 4.83137 13.4142C4.53131 13.7893 4.12435 14 3.7 14Z" fill="#6D6B6B"/>
</svg>
