<svg width="24" height="16" viewBox="0 0 24 16" fill="none" xmlns="http://www.w3.org/2000/svg">
<path d="M0 1.33333C0 0.597083 0.767679 0 1.71429 0H22.2857C23.2339 0 24 0.597083 24 1.33333C24 2.07083 23.2339 2.66667 22.2857 2.66667H1.71429C0.767679 2.66667 0 2.07083 0 1.33333ZM0 8C0 7.2625 0.767679 6.66667 1.71429 6.66667H22.2857C23.2339 6.66667 24 7.2625 24 8C24 8.7375 23.2339 9.33333 22.2857 9.33333H1.71429C0.767679 9.33333 0 8.7375 0 8ZM22.2857 16H1.71429C0.767679 16 0 15.4042 0 14.6667C0 13.9292 0.767679 13.3333 1.71429 13.3333H22.2857C23.2339 13.3333 24 13.9292 24 14.6667C24 15.4042 23.2339 16 22.2857 16Z" fill="black"/>
</svg>
