<svg width="13" height="16" viewBox="0 0 13 16" fill="none" xmlns="http://www.w3.org/2000/svg">
<path d="M10.3502 1.5C10.3502 2.32844 9.54399 3 8.55024 3C7.55649 3 6.75024 2.32844 6.75024 1.5C6.75024 0.671562 7.55649 0 8.55024 0C9.54399 0 10.3502 0.671562 10.3502 1.5ZM5.49399 6.22813C5.46024 6.24062 5.42274 6.25313 5.38899 6.26562L4.97649 6.41875C4.40312 6.63125 3.95349 7.01875 3.72099 7.50313L3.66437 7.62187C3.41837 8.13437 2.72012 8.38438 2.10474 8.17813C1.48937 7.97188 1.19012 7.39062 1.43612 6.87813L1.49274 6.75938C1.95737 5.79375 2.85699 5.01562 3.99999 4.59062L4.41249 4.4375C5.19399 4.15 6.00399 4 6.88899 4C8.56149 4 10.069 4.8375 10.7102 6.12187L11.254 7.27187L12.0865 7.60625C12.679 7.85312 12.919 8.45312 12.6227 8.94687C12.3265 9.44062 11.6065 9.64062 11.014 9.39375L10.0127 8.97812C9.62649 8.81562 9.32274 8.54375 9.15774 8.2125L8.79774 7.49375L8.07399 9.54062L9.93024 11.2312C10.1327 11.4156 10.279 11.6375 10.3502 11.8813L11.2127 14.7563C11.374 15.2938 10.984 15.8375 10.3427 15.9688C9.69774 16.1031 9.04524 15.7781 8.85399 15.2437L8.05899 12.4875L5.41149 10.0781C4.85649 9.575 4.61649 8.87187 4.86024 8.2125L5.49399 6.22813ZM3.32762 12.4375L4.26362 10.4875C4.34424 10.5813 4.43124 10.6688 4.52649 10.7563L6.05274 12.1438L5.50899 13.275C5.41899 13.4656 5.28399 13.6375 5.11149 13.7781L2.79887 15.7063C2.33012 16.0969 1.57037 16.0969 1.10169 15.7063C0.633094 15.3156 0.633094 14.6844 1.10169 14.2937L3.32762 12.4375Z" fill="#6D6B6B"/>
</svg>
