<svg width="17" height="16" viewBox="0 0 17 16" fill="none" xmlns="http://www.w3.org/2000/svg">
<path d="M9.68125 3.3875V2H10.1821C10.5984 2 10.9333 1.55417 10.9333 1C10.9333 0.445833 10.5984 0 10.1821 0H7.64976C7.26162 0 6.92669 0.447917 6.92669 0.9625C6.92669 1.47708 7.26162 2 7.64976 2H8.17876V3.38833C4.66044 3.8875 1.91841 7.85 1.91841 12.6667H15.9416C15.9416 7.85 13.1996 3.8875 9.68125 3.3875ZM16.192 14H1.66799C1.25324 14 0.916748 14.4458 0.916748 14.9625C0.916748 15.5542 1.25324 16 1.63982 16H16.1638C16.5786 16 16.9151 15.5521 16.9151 15.0375C16.9433 14.4458 16.6083 14 16.192 14Z" fill="#6D6B6B"/>
</svg>
