<svg width="25" height="24" viewBox="0 0 25 24" fill="none" xmlns="http://www.w3.org/2000/svg">
<path d="M4.51565 0C4.99669 0 5.4108 0.383906 5.50283 0.914531L5.56557 1.5H23.1633C24.0125 1.5 24.6901 2.44922 24.4517 3.40594L22.1929 12.4078C22.0297 13.0547 21.5027 13.5 20.9045 13.5H7.64033L8.02516 15.75H20.9129C21.4692 15.75 21.9168 16.2516 21.9168 16.875C21.9168 17.4984 21.4692 18 20.9129 18H7.1551C6.71171 18 6.29759 17.6156 6.20557 17.0859L3.68491 2.25H1.50391C0.949669 2.25 0.5 1.74609 0.5 1.125C0.5 0.503906 0.949669 0 1.50391 0H4.51565ZM5.8542 21.75C5.8542 20.5078 6.75354 19.5 7.86202 19.5C8.97051 19.5 9.86985 20.5078 9.86985 21.75C9.86985 22.9922 8.97051 24 7.86202 24C6.75354 24 5.8542 22.9922 5.8542 21.75ZM21.9168 21.75C21.9168 22.9922 21.0175 24 19.909 24C18.8005 24 17.9011 22.9922 17.9011 21.75C17.9011 20.5078 18.8005 19.5 19.909 19.5C21.0175 19.5 21.9168 20.5078 21.9168 21.75Z" fill="white"/>
</svg>
