<svg width="25" height="16" viewBox="0 0 25 16" fill="none" xmlns="http://www.w3.org/2000/svg">
<path d="M4 1.33333C4 0.597083 4.64891 0 5.44906 0H17.7867C18.5883 0 19.2867 0.597083 19.2867 1.33333C19.2867 2.07083 18.5883 2.66667 17.7867 2.66667H5.44906C4.64891 2.66667 4 2.07083 4 1.33333ZM4 8C4 7.2625 4.64891 6.66667 5.44906 6.66667H22.8377C23.6392 6.66667 24.2868 7.2625 24.2868 8C24.2868 8.7375 23.6392 9.33333 22.8377 9.33333H5.44906C4.64891 9.33333 4 8.7375 4 8ZM12.7867 16H5.44906C4.64891 16 4 15.4042 4 14.6667C4 13.9292 4.64891 13.3333 5.44906 13.3333H12.7867C13.5883 13.3333 14.2867 13.9292 14.2867 14.6667C14.2867 15.4042 13.5883 16 12.7867 16Z" fill="#00240F"/>
<path d="M2.89811 1.33333C2.89811 2.06979 2.24943 2.66667 1.44906 2.66667C0.648679 2.66667 0 2.06979 0 1.33333C0 0.596875 0.648679 0 1.44906 0C2.24943 0 2.89811 0.596875 2.89811 1.33333Z" fill="#00240F"/>
<path d="M2.89811 7.99999C2.89811 8.73645 2.24943 9.33332 1.44906 9.33332C0.648679 9.33332 0 8.73645 0 7.99999C0 7.26353 0.648679 6.66666 1.44906 6.66666C2.24943 6.66666 2.89811 7.26353 2.89811 7.99999Z" fill="#00240F"/>
<path d="M2.89811 14.6667C2.89811 15.4031 2.24943 16 1.44906 16C0.648679 16 0 15.4031 0 14.6667C0 13.9302 0.648679 13.3333 1.44906 13.3333C2.24943 13.3333 2.89811 13.9302 2.89811 14.6667Z" fill="#00240F"/>
</svg>
