<svg width="9" height="16" viewBox="0 0 9 16" fill="none" xmlns="http://www.w3.org/2000/svg">
<path d="M4.33336 0C4.82501 0 5.22222 0.447812 5.22222 1V2.115C5.26667 2.12156 5.30833 2.12875 5.35278 2.13594C5.64721 2.18531 6.52497 2.34437 6.88607 2.44719C7.33605 2.58281 7.64993 3.12812 7.52771 3.6625C7.40827 4.19688 6.92495 4.52187 6.44719 4.3875C6.18886 4.28437 5.40277 4.16563 5.09167 4.11562C4.20003 3.96562 3.43616 4.04063 2.91118 4.26562C2.40341 4.48438 2.19259 4.79375 2.13676 5.14062C2.08287 5.475 2.1237 5.66563 2.17259 5.78438C2.22509 5.90938 2.32758 6.05 2.53174 6.20312C2.9834 6.5375 3.67227 6.7625 4.56669 7.03438L4.64446 7.05937C5.43333 7.3 6.39997 7.59688 7.11662 8.13125C7.50827 8.425 7.8777 8.82187 8.10548 9.37187C8.33603 9.92812 8.38602 10.5531 8.28047 11.1906C8.08603 12.4062 7.33605 13.2 6.45552 13.6125C6.07776 13.7875 5.6611 13.9 5.22222 13.9563V15C5.22222 15.5531 4.82501 16 4.33336 16C3.84171 16 3.4445 15.5531 3.4445 15V13.9094C3.43339 13.9094 3.4195 13.8781 3.40839 13.9031H3.40283C2.72785 13.7844 1.61316 13.4563 0.861235 13.0813C0.412637 12.8562 0.210698 12.2656 0.410137 11.7594C0.609576 11.2562 1.13484 11.0281 1.55844 11.2531C2.16398 11.5437 3.11951 11.8281 3.67227 11.925C4.56113 12.075 5.29167 11.9875 5.7861 11.7625C6.25553 11.5469 6.46941 11.2344 6.53052 10.8594C6.5833 10.525 6.54441 10.3344 6.49441 10.2156C6.44163 10.0906 6.33886 9.95 6.13609 9.79688C5.68332 9.4625 4.99445 9.2375 4.10003 8.96562L4.02226 8.94063C3.23339 8.7 2.2662 8.40312 1.54899 7.86875C1.15706 7.575 0.789849 7.17813 0.561799 6.62813C0.330417 6.07188 0.280141 5.44688 0.387638 4.78125C0.584299 3.56562 1.36261 2.79031 2.27675 2.39781C2.63841 2.2425 3.03062 2.14031 3.4445 2.08531V1C3.4445 0.447812 3.84171 0 4.33336 0Z" fill="#6D6B6B"/>
</svg>
