<svg width="245" height="188" viewBox="0 0 245 188" fill="none" xmlns="http://www.w3.org/2000/svg">
<path d="M71.455 165.089H192.844" stroke="#EAEAEA" stroke-width="4.8775" stroke-miterlimit="10" stroke-linecap="round" stroke-linejoin="round"/>
<path d="M216.727 132.641L48.052 120.447C45.996 120.298 44.45 118.511 44.599 116.455L51.148 25.855C51.297 23.799 53.084 22.253 55.14 22.402L223.815 34.595C225.871 34.744 227.417 36.531 227.268 38.587L220.719 129.187C220.57 131.243 218.783 132.789 216.727 132.641Z" fill="#F5F5F5"/>
<path d="M124 181C157.137 181 184 154.137 184 121C184 87.8629 157.137 61 124 61C90.8629 61 64 87.8629 64 121C64 154.137 90.8629 181 124 181Z" fill="#EAEAEA"/>
<path d="M122.5 169C148.734 169 170 147.734 170 121.5C170 95.2665 148.734 74 122.5 74C96.2665 74 75 95.2665 75 121.5C75 147.734 96.2665 169 122.5 169Z" fill="#DDDEDF"/>
<path d="M193 52C204.046 52 213 43.0457 213 32C213 20.9543 204.046 12 193 12C181.954 12 173 20.9543 173 32C173 43.0457 181.954 52 193 52Z" fill="white" stroke="#C9C9C9" stroke-width="4.8775" stroke-miterlimit="10" stroke-linecap="round" stroke-linejoin="round"/>
<path d="M192.979 47.1594C201.185 47.1594 207.838 40.507 207.838 32.3009C207.838 24.0948 201.185 17.4424 192.979 17.4424C184.773 17.4424 178.121 24.0948 178.121 32.3009C178.121 40.507 184.773 47.1594 192.979 47.1594Z" fill="#DBDCDD"/>
<path d="M144 52L193 33" stroke="#E8E8E8" stroke-width="12" stroke-miterlimit="10" stroke-linecap="round" stroke-linejoin="round"/>
<path d="M38.1358 125.152C42.4446 124.868 45.7072 121.145 45.4231 116.836C45.1389 112.527 41.4156 109.264 37.1068 109.549C32.798 109.833 29.5353 113.556 29.8195 117.865C30.1036 122.174 33.827 125.436 38.1358 125.152Z" stroke="#EAEAEA" stroke-width="4.8775" stroke-miterlimit="10" stroke-linecap="round" stroke-linejoin="round"/>
<path d="M76.3416 56.6966L35.4306 49.0956C33.8166 48.7956 32.7506 47.2446 33.0506 45.6296L35.8746 30.4306C36.1746 28.8166 37.7256 27.7506 39.3406 28.0506L80.2516 35.6516C81.8656 35.9516 82.9316 37.5026 82.6316 39.1176L79.8076 54.3166C79.5076 55.9306 77.9556 56.9966 76.3416 56.6966Z" fill="#DDDEDF"/>
<path d="M42.4076 50.6186L46.2536 29.5616" stroke="#ECECEC" stroke-width="4.8775" stroke-miterlimit="10" stroke-linejoin="round"/>
<path d="M51.9636 52.9016L55.8086 31.8456" stroke="#ECECEC" stroke-width="4.8775" stroke-miterlimit="10" stroke-linejoin="round"/>
<path d="M61.5186 53.9665L65.3646 32.9095" stroke="#ECECEC" stroke-width="4.8775" stroke-miterlimit="10" stroke-linejoin="round"/>
<path d="M71.0746 56.2496L74.9196 35.1926" stroke="#ECECEC" stroke-width="4.8775" stroke-miterlimit="10" stroke-linejoin="round"/>
<path d="M48.883 143.791C50.8884 143.791 52.514 142.165 52.514 140.16C52.514 138.155 50.8884 136.529 48.883 136.529C46.8777 136.529 45.252 138.155 45.252 140.16C45.252 142.165 46.8777 143.791 48.883 143.791Z" fill="#EAEAEA"/>
<path d="M200.121 99.716C202.126 99.716 203.752 98.0903 203.752 96.085C203.752 94.0796 202.126 92.454 200.121 92.454C198.116 92.454 196.49 94.0796 196.49 96.085C196.49 98.0903 198.116 99.716 200.121 99.716Z" fill="#EAEAEA"/>
<path d="M204.456 77.307H235" stroke="#EAEAEA" stroke-width="4.8775" stroke-miterlimit="10" stroke-linecap="round" stroke-linejoin="round"/>
<path d="M184.849 151.705H200.121" stroke="#EAEAEA" stroke-width="4.8775" stroke-miterlimit="10" stroke-linecap="round" stroke-linejoin="round"/>
<path d="M171.017 119.004H125.01L124.997 72.9963C124.997 72.4668 124.786 71.9591 124.412 71.5847C124.037 71.2103 123.529 71 123 71C113.111 71.0001 103.445 73.9326 95.2239 79.4266C87.003 84.9207 80.5966 92.7295 76.8148 101.866C73.0329 111.002 72.0455 121.055 73.9774 130.754C75.9093 140.453 80.6737 149.362 87.6682 156.355C94.6628 163.348 103.573 168.11 113.273 170.039C122.973 171.968 133.026 170.978 142.161 167.194C151.296 163.41 159.104 157.001 164.595 148.778C170.087 140.556 173.017 130.889 173.014 121C173.014 120.47 172.803 119.963 172.429 119.588C172.054 119.214 171.547 119.004 171.017 119.004ZM144.949 122.996L142.582 125.363C142.208 125.738 141.998 126.246 141.998 126.775C141.998 127.305 142.209 127.813 142.584 128.187C142.958 128.561 143.466 128.772 143.996 128.771C144.525 128.771 145.033 128.561 145.407 128.186L148.911 124.682C149.129 124.464 149.293 124.198 149.391 123.905C149.489 123.613 149.517 123.302 149.474 122.996H160.086C159.816 123.585 159.474 124.194 159.121 124.82C158.486 125.866 157.959 126.973 157.548 128.125C155.838 128.012 154.134 128.422 152.662 129.298C151.19 130.175 150.018 131.478 149.303 133.035C148.587 134.592 148.361 136.329 148.654 138.018C148.946 139.706 149.745 141.266 150.943 142.492C150.807 142.639 150.675 142.791 150.548 142.95C149.591 144.149 149.02 145.557 148.468 146.918L148.289 147.357C147.778 148.604 147.254 149.776 146.469 150.403C145.61 151.089 144.168 151.325 142.641 151.576C141.189 151.814 139.687 152.059 138.299 152.729C136.939 153.385 135.829 154.395 134.754 155.372C133.596 156.425 132.503 157.419 131.395 157.672C130.356 157.907 128.971 157.498 127.504 157.065C126.075 156.643 124.596 156.206 123.023 156.206C121.449 156.206 119.971 156.643 118.542 157.065C117.076 157.498 115.69 157.907 114.652 157.672C113.543 157.42 112.449 156.424 111.291 155.372C110.216 154.395 109.105 153.385 107.745 152.729C106.356 152.059 104.855 151.813 103.402 151.575C101.875 151.326 100.433 151.089 99.5731 150.403C98.7884 149.776 98.2638 148.604 97.7519 147.357L97.5719 146.914C97.0193 145.554 96.4482 144.147 95.4907 142.949C94.5396 141.758 93.2989 140.894 92.0992 140.059C90.821 139.169 89.6138 138.328 89.1267 137.319C88.6545 136.341 88.7452 134.888 88.8411 133.35C88.933 131.876 89.0282 130.352 88.6839 128.839C88.3518 127.379 87.6178 126.078 86.9083 124.82C86.1361 123.45 85.4066 122.157 85.4063 120.999C85.406 119.842 86.1347 118.548 86.9062 117.179C87.615 115.921 88.3483 114.62 88.6795 113.16C89.0229 111.647 88.9282 110.123 88.8344 108.649C88.7374 107.11 88.6462 105.657 89.1178 104.679C89.6046 103.669 90.8116 102.829 92.0897 101.938C93.2873 101.103 94.5285 100.24 95.4791 99.0491C96.4363 97.8501 97.0071 96.4422 97.5589 95.0815L97.7377 94.6426C98.2486 93.3949 98.7726 92.2221 99.5584 91.5963C100.417 90.9103 101.859 90.6742 103.386 90.4235C104.838 90.1857 106.34 89.9399 107.728 89.2704C109.088 88.6143 110.198 87.604 111.273 86.6268C111.842 86.0882 112.441 85.5814 113.066 85.1089C114.113 88.8876 117.224 91.881 121.01 92.664L121.018 121C121.018 121.529 121.228 122.037 121.603 122.411C121.977 122.786 122.485 122.996 123.015 122.996H144.949ZM157.192 133.352C157.289 134.89 157.38 136.343 156.909 137.321C156.44 138.292 155.306 139.107 154.083 139.96C153.38 139.359 152.882 138.554 152.656 137.658C152.43 136.761 152.488 135.817 152.822 134.955C153.155 134.093 153.749 133.356 154.52 132.846C155.291 132.335 156.201 132.077 157.125 132.107C157.142 132.524 157.167 132.939 157.193 133.352H157.192ZM121.009 88.5355C120.094 88.2002 119.266 87.6667 118.582 86.9731C117.899 86.2795 117.377 85.4432 117.055 84.5242C117.529 84.6423 118.02 84.787 118.523 84.9355C119.333 85.1748 120.159 85.4156 121.008 85.582L121.009 88.5355ZM155.555 153.532C150.267 158.822 143.767 162.742 136.62 164.952C129.473 167.163 121.895 167.597 114.541 166.217C107.188 164.837 100.281 161.685 94.4204 157.034C88.5594 152.382 83.9208 146.372 80.9066 139.524C77.8923 132.676 76.5934 125.196 77.1224 117.734C77.6514 110.271 79.9923 103.051 83.9423 96.6981C87.8923 90.3455 93.3322 85.0525 99.7905 81.2777C106.249 77.503 113.531 75.3604 121.005 75.0357L121.007 81.4887C120.568 81.3756 120.116 81.2421 119.653 81.1056C117.847 80.5721 115.801 79.9685 113.746 80.4349C111.614 80.9197 110.005 82.3827 108.586 83.6736C107.683 84.495 106.83 85.2706 105.992 85.6751C105.124 86.0935 103.966 86.2832 102.74 86.4838C100.865 86.7905 98.7405 87.1383 97.066 88.4759C95.5342 89.6986 94.7329 91.4453 94.0439 93.1274L93.8594 93.5801C93.3941 94.7279 92.9542 95.8124 92.359 96.5582C91.7703 97.2951 90.817 97.9596 89.8073 98.6626C88.2398 99.7545 86.4642 100.992 85.5218 102.945C84.5963 104.864 84.7314 107.007 84.8497 108.899C84.9281 110.146 85.0023 111.323 84.786 112.276C84.5836 113.167 84.0222 114.164 83.4276 115.219C82.4833 116.895 81.4131 118.794 81.4137 121C81.4143 123.205 82.4856 125.105 83.4308 126.781C84.026 127.836 84.588 128.833 84.7909 129.725C85.0077 130.678 84.9342 131.856 84.8562 133.102C84.7384 134.993 84.6045 137.137 85.5316 139.056C86.4741 141.008 88.2509 142.245 89.8188 143.337C90.8289 144.04 91.7828 144.705 92.3722 145.442C92.9673 146.187 93.4072 147.27 93.8729 148.417L94.0592 148.874C94.7494 150.556 95.5519 152.302 97.0831 153.524C98.7587 154.862 100.884 155.21 102.759 155.517C103.985 155.717 105.143 155.907 106.011 156.326C106.849 156.73 107.702 157.506 108.607 158.327C110.027 159.618 111.636 161.081 113.769 161.566C115.826 162.033 117.871 161.429 119.675 160.895C120.886 160.538 122.029 160.2 123.025 160.2C124.021 160.2 125.164 160.538 126.375 160.895C127.726 161.295 129.212 161.733 130.735 161.733C131.255 161.736 131.774 161.679 132.282 161.566C134.415 161.081 136.023 159.618 137.442 158.327C138.345 157.506 139.198 156.73 140.037 156.326C140.904 155.907 142.062 155.718 143.288 155.517C145.163 155.21 147.288 154.863 148.962 153.525C150.494 152.302 151.295 150.556 151.984 148.873L152.169 148.421C152.634 147.273 153.074 146.189 153.669 145.443C154.258 144.705 155.212 144.041 156.221 143.338C157.789 142.246 159.564 141.009 160.507 139.056C161.432 137.137 161.297 134.993 161.179 133.102C161.1 131.855 161.026 130.678 161.242 129.725C161.445 128.834 162.006 127.837 162.601 126.781C163.247 125.633 163.953 124.38 164.333 122.996H168.979C168.515 134.504 163.72 145.411 155.555 153.532Z" fill="#C9C9C9"/>
<path d="M103.579 106.237C101.996 106.237 100.449 106.707 99.1327 107.586C97.8169 108.465 96.7914 109.715 96.186 111.178C95.5807 112.64 95.4227 114.249 95.7319 115.802C96.0411 117.354 96.8038 118.78 97.9234 119.9C99.043 121.019 100.469 121.781 102.022 122.09C103.574 122.399 105.184 122.24 106.646 121.635C108.108 121.029 109.358 120.003 110.237 118.687C111.116 117.371 111.585 115.823 111.584 114.241C111.581 112.119 110.737 110.084 109.236 108.584C107.735 107.084 105.701 106.24 103.579 106.237ZM103.582 118.251C102.789 118.251 102.013 118.016 101.354 117.575C100.694 117.135 100.18 116.508 99.876 115.775C99.5722 115.043 99.4926 114.236 99.6471 113.458C99.8016 112.68 100.183 111.965 100.744 111.405C101.305 110.844 102.019 110.462 102.797 110.307C103.575 110.152 104.382 110.232 105.115 110.535C105.848 110.839 106.474 111.353 106.915 112.012C107.356 112.672 107.592 113.447 107.592 114.241C107.591 115.304 107.168 116.323 106.417 117.075C105.665 117.827 104.646 118.25 103.582 118.251Z" fill="white"/>
<path d="M110.303 135.63C109.181 135.63 108.084 135.963 107.151 136.586C106.218 137.209 105.491 138.095 105.062 139.132C104.633 140.169 104.521 141.309 104.74 142.41C104.959 143.51 105.5 144.521 106.293 145.315C107.087 146.108 108.098 146.649 109.199 146.868C110.299 147.087 111.44 146.974 112.476 146.545C113.513 146.116 114.399 145.389 115.022 144.456C115.645 143.523 115.978 142.426 115.978 141.304C115.976 139.8 115.377 138.358 114.313 137.294C113.249 136.23 111.807 135.632 110.303 135.63ZM110.305 143.324C109.905 143.324 109.515 143.206 109.182 142.984C108.85 142.762 108.591 142.446 108.438 142.077C108.285 141.708 108.245 141.301 108.323 140.91C108.401 140.518 108.593 140.158 108.875 139.875C109.158 139.593 109.518 139.4 109.91 139.322C110.302 139.244 110.708 139.284 111.077 139.437C111.446 139.59 111.762 139.849 111.984 140.181C112.206 140.514 112.325 140.904 112.325 141.304C112.324 141.839 112.111 142.353 111.732 142.731C111.354 143.11 110.84 143.323 110.305 143.323L110.305 143.324Z" fill="white"/>
<path d="M138.925 146.406C139.934 146.406 140.921 146.107 141.76 145.546C142.6 144.985 143.253 144.188 143.64 143.255C144.026 142.323 144.126 141.296 143.929 140.306C143.732 139.316 143.246 138.407 142.532 137.693C141.818 136.979 140.908 136.493 139.918 136.296C138.928 136.099 137.902 136.2 136.969 136.587C136.037 136.973 135.24 137.627 134.679 138.467C134.118 139.306 133.819 140.293 133.82 141.302C133.822 142.655 134.36 143.953 135.317 144.909C136.274 145.866 137.572 146.404 138.925 146.406ZM138.923 139.484C139.283 139.484 139.634 139.591 139.933 139.791C140.232 139.99 140.465 140.274 140.603 140.606C140.74 140.938 140.776 141.304 140.706 141.656C140.636 142.009 140.463 142.333 140.209 142.587C139.955 142.841 139.631 143.014 139.279 143.084C138.926 143.155 138.56 143.118 138.228 142.981C137.896 142.843 137.612 142.61 137.412 142.311C137.213 142.012 137.106 141.661 137.106 141.302C137.107 140.82 137.298 140.358 137.639 140.017C137.98 139.677 138.441 139.485 138.923 139.485L138.923 139.484Z" fill="white"/>
<path d="M123.31 133.69C123.496 133.875 123.716 134.022 123.958 134.123C124.2 134.223 124.46 134.275 124.722 134.275C124.985 134.275 125.244 134.223 125.487 134.123C125.729 134.022 125.949 133.875 126.134 133.69C126.32 133.504 126.467 133.284 126.567 133.042C126.667 132.8 126.719 132.54 126.719 132.278C126.719 132.016 126.667 131.756 126.567 131.514C126.466 131.271 126.319 131.051 126.134 130.866L122.627 127.359C122.252 126.985 121.744 126.774 121.214 126.774C120.685 126.774 120.177 126.985 119.802 127.359C119.428 127.734 119.218 128.242 119.218 128.772C119.218 129.301 119.428 129.809 119.803 130.184L123.31 133.69Z" fill="white"/>
<path d="M109.139 102.148C109.514 102.523 110.022 102.733 110.551 102.733C111.081 102.733 111.589 102.523 111.963 102.148C112.338 101.774 112.548 101.266 112.548 100.736C112.548 100.206 112.337 99.6983 111.963 99.3237L108.455 95.8178C108.081 95.4432 107.573 95.2328 107.043 95.2327C106.514 95.2327 106.006 95.443 105.631 95.8175C105.257 96.192 105.046 96.6999 105.046 97.2296C105.047 97.7592 105.257 98.2672 105.632 98.6418L109.139 102.148Z" fill="white"/>
<path d="M96.957 129.268C96.5823 128.893 96.0743 128.683 95.5446 128.683C95.015 128.683 94.507 128.893 94.1326 129.268C93.7581 129.642 93.5478 130.15 93.548 130.68C93.5481 131.209 93.7586 131.717 94.1332 132.092L97.6402 135.598C98.0148 135.972 98.5228 136.183 99.0525 136.183C99.5821 136.183 100.09 135.973 100.464 135.598C100.839 135.224 101.049 134.716 101.049 134.186C101.049 133.656 100.839 133.148 100.464 132.774L96.957 129.268Z" fill="white"/>
<path d="M126.029 145.948C125.844 145.763 125.623 145.616 125.381 145.515C125.139 145.415 124.879 145.363 124.617 145.363C124.355 145.363 124.095 145.415 123.853 145.515C123.61 145.616 123.39 145.763 123.205 145.948C123.019 146.134 122.872 146.354 122.772 146.596C122.672 146.838 122.62 147.098 122.62 147.36C122.62 147.623 122.672 147.882 122.772 148.125C122.873 148.367 123.02 148.587 123.205 148.772L126.712 152.279C127.086 152.653 127.594 152.864 128.124 152.864C128.654 152.864 129.162 152.653 129.536 152.279C129.911 151.904 130.121 151.396 130.121 150.867C130.121 150.337 129.91 149.829 129.535 149.454L126.029 145.948Z" fill="white"/>
<path d="M125 74H149C160.046 74 169 82.9543 169 94V119H125V74Z" fill="#EAEAEA"/>
</svg>
