<svg width="78" height="78" viewBox="0 0 78 78" fill="none" xmlns="http://www.w3.org/2000/svg">
<path d="M58.3283 56.7914L40.4381 38.8963L58.3282 21.0011C58.5341 20.7952 58.6498 20.5159 58.6498 20.2247C58.6498 19.9334 58.5341 19.6541 58.3282 19.4482C54.4828 15.6017 49.5835 12.9823 44.2497 11.921C38.916 10.8598 33.3875 11.4044 28.3632 13.4861C23.339 15.5678 19.0447 19.0929 16.0234 23.6159C13.002 28.1388 11.3894 33.4563 11.3893 38.8961C11.3893 44.3358 13.0019 49.6535 16.0232 54.1765C19.0445 58.6995 23.3389 62.2248 28.3632 64.3066C33.3875 66.3883 38.9161 66.933 44.2498 65.8717C49.5836 64.8104 54.4829 62.1909 58.3283 58.3444C58.5342 58.1385 58.6498 57.8592 58.6498 57.5679C58.6498 57.2767 58.5342 56.9974 58.3283 56.7914ZM46.6385 48.2043L44.7975 48.2044C44.5063 48.2045 44.2271 48.3202 44.0212 48.5262C43.8154 48.7322 43.6997 49.0116 43.6998 49.3028C43.6998 49.5941 43.8156 49.8734 44.0215 50.0793C44.2275 50.2853 44.5067 50.4009 44.7979 50.4009L47.5236 50.4009C47.6932 50.4009 47.8605 50.3615 48.0123 50.2857C48.1641 50.21 48.2962 50.1 48.3982 49.9645L52.5245 54.092C52.1909 54.216 51.8207 54.3197 51.4399 54.4261C50.7865 54.5858 50.1509 54.8113 49.5429 55.0991C48.9216 54.3903 48.0999 53.8868 47.1865 53.6551C46.273 53.4234 45.3107 53.4745 44.4269 53.8015C43.543 54.1285 42.7792 54.7161 42.2363 55.4866C41.6934 56.2571 41.3971 57.1742 41.3864 58.1168C41.2761 58.1214 41.1655 58.1289 41.0544 58.1414C40.2159 58.2353 39.4463 58.5608 38.7025 58.8752L38.4622 58.9764C37.7782 59.2628 37.1188 59.5146 36.5693 59.4527C35.9686 59.3855 35.3159 58.9163 34.6247 58.4199C33.9675 57.9475 33.2879 57.459 32.4879 57.1796C31.7039 56.9057 30.8793 56.8669 30.0811 56.8286C29.2215 56.7877 28.4099 56.7487 27.8805 56.416C27.385 56.1033 27.0055 55.406 26.6034 54.6669C26.2119 53.9466 25.8069 53.202 25.195 52.5899C24.5831 51.9778 23.8387 51.5727 23.1186 51.1811C22.3798 50.779 21.6823 50.3991 21.37 49.9037C21.0369 49.3744 20.9987 48.5617 20.9574 47.7021C20.9196 46.9042 20.8804 46.079 20.6067 45.2949C20.3273 44.4946 19.8391 43.8148 19.3667 43.1575C18.8699 42.4664 18.401 41.8134 18.3339 41.212C18.2726 40.6631 18.5243 40.0034 18.8104 39.3193L18.9125 39.0772C19.2269 38.3331 19.552 37.564 19.6457 36.7256C19.7389 35.8928 19.5925 35.0743 19.4509 34.2828C19.3001 33.4395 19.1577 32.643 19.3606 32.0612C19.5574 31.4973 20.1579 30.9676 20.7934 30.4068C21.4026 29.8693 22.0324 29.3136 22.487 28.5914C22.9257 27.8946 23.1464 27.1032 23.3599 26.3378C23.5923 25.505 23.8117 24.7183 24.2618 24.268C24.712 23.8178 25.4984 23.5983 26.3311 23.3659C27.0962 23.1523 27.8874 22.9315 28.584 22.4927C29.306 22.038 29.862 21.4085 30.3988 20.7989C30.9596 20.1628 31.4892 19.5624 32.0531 19.3655C32.6351 19.1622 33.4314 19.3048 34.2747 19.4558C35.0652 19.5968 35.8838 19.7437 36.7165 19.6506C37.5551 19.5566 38.3247 19.2312 39.0685 18.9167L39.3088 18.8156C39.9928 18.5291 40.6527 18.2769 41.2017 18.3392C41.8024 18.4065 42.4551 18.8757 43.1463 19.372C43.8035 19.8444 44.483 20.3329 45.2831 20.6124C46.0671 20.8863 46.8917 20.9251 47.6899 20.9633C48.1208 20.9753 48.5507 21.0112 48.9776 21.0706C47.915 22.9472 47.9603 25.3212 49.1278 27.0982L38.1093 38.1198C37.9034 38.3257 37.7878 38.605 37.7878 38.8963C37.7878 39.1875 37.9034 39.4668 38.1093 39.6727L46.6385 48.2043ZM47.3713 56.9933C46.8107 57.6292 46.281 58.2297 45.7171 58.4267C45.1575 58.6221 44.3995 58.4978 43.5923 58.3537C43.5528 57.8466 43.6717 57.3398 43.9325 56.9033C44.1933 56.4667 44.5833 56.122 45.0484 55.9167C45.5136 55.7114 46.031 55.6556 46.5292 55.7571C47.0274 55.8587 47.4818 56.1125 47.8296 56.4834C47.6739 56.6518 47.522 56.8231 47.3716 56.9936L47.3713 56.9933ZM50.7332 25.4924C50.5081 25.0064 50.3934 24.4766 50.3974 23.941C50.4013 23.4054 50.5238 22.8774 50.7561 22.3948C50.8946 22.6251 51.0293 22.8724 51.1669 23.1256C51.3887 23.5336 51.6162 23.9485 51.8817 24.3436L50.7332 25.4924ZM38.8857 64.2038C34.7715 64.2037 30.7193 63.2001 27.0805 61.2798C23.4416 59.3595 20.3258 56.5805 18.0031 53.1837C15.6804 49.7869 14.2209 45.8747 13.7511 41.7863C13.2812 37.6978 13.8152 33.5565 15.3068 29.7211C16.7984 25.8857 19.2025 22.4721 22.3109 19.776C25.4192 17.0799 29.138 15.1828 33.1449 14.249C37.1517 13.3151 41.3258 13.3728 45.3054 14.417C49.285 15.4613 52.95 17.4605 55.9827 20.2414L53.4734 22.7514C53.3469 22.5369 53.2229 22.309 53.096 22.0759C52.6014 21.1661 52.0406 20.1356 51.06 19.5175C50.0422 18.8767 48.8477 18.8199 47.7938 18.7699C47.1231 18.738 46.4897 18.7078 46.0063 18.539C45.5063 18.3644 44.9822 17.9876 44.4274 17.5888C43.5791 16.9787 42.6176 16.2876 41.4462 16.1563C40.375 16.036 39.384 16.4035 38.4618 16.7896L38.2139 16.8939C37.5865 17.1592 36.9937 17.4098 36.4721 17.4684C35.9566 17.5259 35.3274 17.4135 34.6614 17.2941C33.6271 17.109 32.4552 16.8997 31.3293 17.2924C30.2229 17.6787 29.4417 18.5647 28.7521 19.3462C28.2973 19.8618 27.8684 20.3483 27.4138 20.6345C26.9884 20.9024 26.3825 21.0716 25.7408 21.2507C24.7218 21.535 23.5667 21.8575 22.7091 22.7153C21.8515 23.5731 21.5292 24.7285 21.2449 25.7478C21.0659 26.3897 20.8968 26.9958 20.6285 27.4218C20.3423 27.8765 19.8556 28.3059 19.3404 28.7603C18.5591 29.4498 17.6732 30.2313 17.2873 31.3381C16.8945 32.4638 17.1042 33.636 17.2892 34.6704C17.4084 35.3368 17.5209 35.9661 17.4632 36.4822C17.4048 37.0034 17.1545 37.5958 16.8895 38.2229L16.7845 38.4728C16.3984 39.3956 16.0316 40.3863 16.1515 41.4573C16.2827 42.6292 16.9738 43.5911 17.5835 44.4398C17.9822 44.9947 18.3588 45.5191 18.5335 46.0193C18.7021 46.5025 18.7321 47.1362 18.7643 47.8073C18.8143 48.8616 18.8711 50.0565 19.5118 51.0746C20.1298 52.0563 21.1603 52.6166 22.0695 53.1112C22.6792 53.4429 23.255 53.7563 23.6424 54.1437C24.0297 54.5312 24.343 55.1071 24.6747 55.7172C25.0448 56.3979 25.4519 57.1464 26.0442 57.7388C26.2456 57.9421 26.4692 58.1221 26.7108 58.2756C27.7286 58.9165 28.9231 58.9732 29.977 59.0232C30.6477 59.0551 31.2811 59.0853 31.7644 59.2541C32.2644 59.4287 32.7886 59.8055 33.3433 60.2044C34.1917 60.8144 35.1532 61.5055 36.3246 61.6368C37.3958 61.7571 38.3868 61.3896 39.309 61.0035L39.5568 60.8992C40.1842 60.6339 40.7771 60.3833 41.2987 60.3247C41.8144 60.267 42.4435 60.3797 43.1097 60.4989C44.1439 60.6841 45.3156 60.8935 46.4415 60.5007C47.548 60.1143 48.3292 59.2283 49.0187 58.447C49.4735 57.9313 49.9023 57.4448 50.3569 57.1586C50.7823 56.8907 51.3883 56.7215 52.0305 56.542C52.7284 56.3472 53.4901 56.1344 54.1762 55.7441L55.9828 57.5512C51.3261 61.8456 45.2194 64.2218 38.8857 64.2038V64.2038Z" fill="#EC0000"/>
<path d="M58.3283 56.7914L40.4381 38.8963L58.3282 21.0011C58.5341 20.7952 58.6498 20.5159 58.6498 20.2247C58.6498 19.9334 58.5341 19.6541 58.3282 19.4482C54.4828 15.6017 49.5835 12.9823 44.2497 11.921C38.916 10.8598 33.3875 11.4044 28.3632 13.4861C23.339 15.5678 19.0447 19.0929 16.0234 23.6159C13.002 28.1388 11.3894 33.4563 11.3893 38.8961C11.3893 44.3358 13.0019 49.6535 16.0232 54.1765C19.0445 58.6995 23.3389 62.2248 28.3632 64.3066C33.3875 66.3883 38.9161 66.933 44.2498 65.8717C49.5836 64.8104 54.4829 62.1909 58.3283 58.3444C58.5342 58.1385 58.6498 57.8592 58.6498 57.5679C58.6498 57.2767 58.5342 56.9974 58.3283 56.7914ZM46.6385 48.2043L44.7975 48.2044C44.5063 48.2045 44.2271 48.3202 44.0212 48.5262C43.8154 48.7322 43.6997 49.0116 43.6998 49.3028C43.6998 49.5941 43.8156 49.8734 44.0215 50.0793C44.2275 50.2853 44.5067 50.4009 44.7979 50.4009L47.5236 50.4009C47.6932 50.4009 47.8605 50.3615 48.0123 50.2857C48.1641 50.21 48.2962 50.1 48.3982 49.9645L52.5245 54.092C52.1909 54.216 51.8207 54.3197 51.4399 54.4261C50.7865 54.5858 50.1509 54.8113 49.5429 55.0991C48.9216 54.3903 48.0999 53.8868 47.1865 53.6551C46.273 53.4234 45.3107 53.4745 44.4269 53.8015C43.543 54.1285 42.7792 54.7161 42.2363 55.4866C41.6934 56.2571 41.3971 57.1742 41.3864 58.1168C41.2761 58.1214 41.1655 58.1289 41.0544 58.1414C40.2159 58.2353 39.4463 58.5608 38.7025 58.8752L38.4622 58.9764C37.7782 59.2628 37.1188 59.5146 36.5693 59.4527C35.9686 59.3855 35.3159 58.9163 34.6247 58.4199C33.9675 57.9475 33.2879 57.459 32.4879 57.1796C31.7039 56.9057 30.8793 56.8669 30.0811 56.8286C29.2215 56.7877 28.4099 56.7487 27.8805 56.416C27.385 56.1033 27.0055 55.406 26.6034 54.6669C26.2119 53.9466 25.8069 53.202 25.195 52.5899C24.5831 51.9778 23.8387 51.5727 23.1186 51.1811C22.3798 50.779 21.6823 50.3991 21.37 49.9037C21.0369 49.3744 20.9987 48.5617 20.9574 47.7021C20.9196 46.9042 20.8804 46.079 20.6067 45.2949C20.3273 44.4946 19.8391 43.8148 19.3667 43.1575C18.8699 42.4664 18.401 41.8134 18.3339 41.212C18.2726 40.6631 18.5243 40.0034 18.8104 39.3193L18.9125 39.0772C19.2269 38.3331 19.552 37.564 19.6457 36.7256C19.7389 35.8928 19.5925 35.0743 19.4509 34.2828C19.3001 33.4395 19.1577 32.643 19.3606 32.0612C19.5574 31.4973 20.1579 30.9676 20.7934 30.4068C21.4026 29.8693 22.0324 29.3136 22.487 28.5914C22.9257 27.8946 23.1464 27.1032 23.3599 26.3378C23.5923 25.505 23.8117 24.7183 24.2618 24.268C24.712 23.8178 25.4984 23.5983 26.3311 23.3659C27.0962 23.1523 27.8874 22.9315 28.584 22.4927C29.306 22.038 29.862 21.4085 30.3988 20.7989C30.9596 20.1628 31.4892 19.5624 32.0531 19.3655C32.6351 19.1622 33.4314 19.3048 34.2747 19.4558C35.0652 19.5968 35.8838 19.7437 36.7165 19.6506C37.5551 19.5566 38.3247 19.2312 39.0685 18.9167L39.3088 18.8156C39.9928 18.5291 40.6527 18.2769 41.2017 18.3392C41.8024 18.4065 42.4551 18.8757 43.1463 19.372C43.8035 19.8444 44.483 20.3329 45.2831 20.6124C46.0671 20.8863 46.8917 20.9251 47.6899 20.9633C48.1208 20.9753 48.5507 21.0112 48.9776 21.0706C47.915 22.9472 47.9603 25.3212 49.1278 27.0982L38.1093 38.1198C37.9034 38.3257 37.7878 38.605 37.7878 38.8963C37.7878 39.1875 37.9034 39.4668 38.1093 39.6727L46.6385 48.2043ZM47.3713 56.9933C46.8107 57.6292 46.281 58.2297 45.7171 58.4267C45.1575 58.6221 44.3995 58.4978 43.5923 58.3537C43.5528 57.8466 43.6717 57.3398 43.9325 56.9033C44.1933 56.4667 44.5833 56.122 45.0484 55.9167C45.5136 55.7114 46.031 55.6556 46.5292 55.7571C47.0274 55.8587 47.4818 56.1125 47.8296 56.4834C47.6739 56.6518 47.522 56.8231 47.3716 56.9936L47.3713 56.9933ZM50.7332 25.4924C50.5081 25.0064 50.3934 24.4766 50.3974 23.941C50.4013 23.4054 50.5238 22.8774 50.7561 22.3948C50.8946 22.6251 51.0293 22.8724 51.1669 23.1256C51.3887 23.5336 51.6162 23.9485 51.8817 24.3436L50.7332 25.4924ZM38.8857 64.2038C34.7715 64.2037 30.7193 63.2001 27.0805 61.2798C23.4416 59.3595 20.3258 56.5805 18.0031 53.1837C15.6804 49.7869 14.2209 45.8747 13.7511 41.7863C13.2812 37.6978 13.8152 33.5565 15.3068 29.7211C16.7984 25.8857 19.2025 22.4721 22.3109 19.776C25.4192 17.0799 29.138 15.1828 33.1449 14.249C37.1517 13.3151 41.3258 13.3728 45.3054 14.417C49.285 15.4613 52.95 17.4605 55.9827 20.2414L53.4734 22.7514C53.3469 22.5369 53.2229 22.309 53.096 22.0759C52.6014 21.1661 52.0406 20.1356 51.06 19.5175C50.0422 18.8767 48.8477 18.8199 47.7938 18.7699C47.1231 18.738 46.4897 18.7078 46.0063 18.539C45.5063 18.3644 44.9822 17.9876 44.4274 17.5888C43.5791 16.9787 42.6176 16.2876 41.4462 16.1563C40.375 16.036 39.384 16.4035 38.4618 16.7896L38.2139 16.8939C37.5865 17.1592 36.9937 17.4098 36.4721 17.4684C35.9566 17.5259 35.3274 17.4135 34.6614 17.2941C33.6271 17.109 32.4552 16.8997 31.3293 17.2924C30.2229 17.6787 29.4417 18.5647 28.7521 19.3462C28.2973 19.8618 27.8684 20.3483 27.4138 20.6345C26.9884 20.9024 26.3825 21.0716 25.7408 21.2507C24.7218 21.535 23.5667 21.8575 22.7091 22.7153C21.8515 23.5731 21.5292 24.7285 21.2449 25.7478C21.0659 26.3897 20.8968 26.9958 20.6285 27.4218C20.3423 27.8765 19.8556 28.3059 19.3404 28.7603C18.5591 29.4498 17.6732 30.2313 17.2873 31.3381C16.8945 32.4638 17.1042 33.636 17.2892 34.6704C17.4084 35.3368 17.5209 35.9661 17.4632 36.4822C17.4048 37.0034 17.1545 37.5958 16.8895 38.2229L16.7845 38.4728C16.3984 39.3956 16.0316 40.3863 16.1515 41.4573C16.2827 42.6292 16.9738 43.5911 17.5835 44.4398C17.9822 44.9947 18.3588 45.5191 18.5335 46.0193C18.7021 46.5025 18.7321 47.1362 18.7643 47.8073C18.8143 48.8616 18.8711 50.0565 19.5118 51.0746C20.1298 52.0563 21.1603 52.6166 22.0695 53.1112C22.6792 53.4429 23.255 53.7563 23.6424 54.1437C24.0297 54.5312 24.343 55.1071 24.6747 55.7172C25.0448 56.3979 25.4519 57.1464 26.0442 57.7388C26.2456 57.9421 26.4692 58.1221 26.7108 58.2756C27.7286 58.9165 28.9231 58.9732 29.977 59.0232C30.6477 59.0551 31.2811 59.0853 31.7644 59.2541C32.2644 59.4287 32.7886 59.8055 33.3433 60.2044C34.1917 60.8144 35.1532 61.5055 36.3246 61.6368C37.3958 61.7571 38.3868 61.3896 39.309 61.0035L39.5568 60.8992C40.1842 60.6339 40.7771 60.3833 41.2987 60.3247C41.8144 60.267 42.4435 60.3797 43.1097 60.4989C44.1439 60.6841 45.3156 60.8935 46.4415 60.5007C47.548 60.1143 48.3292 59.2283 49.0187 58.447C49.4735 57.9313 49.9023 57.4448 50.3569 57.1586C50.7823 56.8907 51.3883 56.7215 52.0305 56.542C52.7284 56.3472 53.4901 56.1344 54.1762 55.7441L55.9828 57.5512C51.3261 61.8456 45.2194 64.2218 38.8857 64.2038V64.2038Z" fill="#EC0000"/>
<path d="M37.0699 25.5962C36.4544 24.9805 35.6702 24.5612 34.8164 24.3913C33.9627 24.2215 33.0777 24.3086 32.2735 24.6418C31.4693 24.9751 30.7819 25.5393 30.2983 26.2633C29.8147 26.9873 29.5566 27.8384 29.5566 28.7092C29.5566 29.5799 29.8147 30.4311 30.2983 31.155C30.7819 31.879 31.4693 32.4433 32.2735 32.7765C33.0777 33.1097 33.9627 33.1969 34.8164 33.027C35.6702 32.8572 36.4544 32.4379 37.0699 31.8222C37.8941 30.9959 38.357 29.8764 38.357 28.7092C38.357 27.542 37.8941 26.4225 37.0699 25.5962V25.5962ZM32.3982 30.2692C32.0897 29.9607 31.8797 29.5676 31.7946 29.1396C31.7094 28.7116 31.7531 28.268 31.9201 27.8649C32.087 27.4618 32.3697 27.1172 32.7324 26.8748C33.0951 26.6323 33.5215 26.5029 33.9578 26.503C34.394 26.503 34.8204 26.6323 35.1832 26.8748C35.5459 27.1172 35.8286 27.4618 35.9955 27.8649C36.1624 28.268 36.2061 28.7116 36.121 29.1396C36.0359 29.5676 35.8259 29.9607 35.5174 30.2692C35.1034 30.6824 34.5426 30.9144 33.9578 30.9144C33.373 30.9144 32.8121 30.6824 32.3982 30.2692V30.2692Z" fill="#05A84B"/>
<path d="M28.2523 39.641C27.816 39.2046 27.2601 38.9073 26.6549 38.7869C26.0497 38.6665 25.4224 38.7283 24.8523 38.9644C24.2822 39.2006 23.795 39.6006 23.4521 40.1137C23.1093 40.6269 22.9263 41.2303 22.9262 41.8475C22.9262 42.4647 23.1091 43.0681 23.4519 43.5813C23.7946 44.0945 24.2818 44.4946 24.8519 44.7309C25.4219 44.9671 26.0492 45.029 26.6544 44.9087C27.2596 44.7884 27.8156 44.4912 28.2519 44.0549C28.8363 43.4692 29.1645 42.6755 29.1646 41.848C29.1647 41.0205 28.8366 40.2268 28.2523 39.641ZM25.2604 42.6338C25.105 42.4783 24.9991 42.2803 24.9563 42.0647C24.9134 41.8491 24.9354 41.6257 25.0195 41.4226C25.1036 41.2195 25.246 41.0459 25.4288 40.9238C25.6115 40.8017 25.8263 40.7365 26.046 40.7366C26.2658 40.7366 26.4806 40.8018 26.6633 40.9239C26.846 41.046 26.9884 41.2196 27.0725 41.4227C27.1566 41.6258 27.1786 41.8493 27.1357 42.0648C27.0928 42.2804 26.9869 42.4784 26.8315 42.6339C26.623 42.8418 26.3405 42.9586 26.046 42.9585C25.7515 42.9584 25.4691 42.8416 25.2606 42.6335L25.2604 42.6338Z" fill="#05A84B"/>
<path d="M35.1905 54.9644C35.583 55.357 36.0832 55.6244 36.6276 55.7327C37.1721 55.8411 37.7364 55.7855 38.2493 55.573C38.7622 55.3605 39.2005 55.0006 39.5089 54.5389C39.8173 54.0772 39.982 53.5344 39.982 52.9792C39.982 52.4239 39.8173 51.8811 39.5089 51.4194C39.2005 50.9577 38.7621 50.5978 38.2493 50.3853C37.7364 50.1728 37.1721 50.1172 36.6276 50.2255C36.0831 50.3339 35.583 50.6013 35.1905 50.9939C34.6649 51.5208 34.3698 52.2348 34.3698 52.9791C34.3698 53.7235 34.6649 54.4374 35.1905 54.9644V54.9644ZM37.8821 52.272C38.0219 52.4119 38.1171 52.59 38.1557 52.784C38.1942 52.9779 38.1744 53.1789 38.0988 53.3616C38.0231 53.5443 37.895 53.7005 37.7306 53.8103C37.5662 53.9202 37.373 53.9788 37.1753 53.9788C36.9776 53.9788 36.7844 53.9201 36.62 53.8102C36.4556 53.7004 36.3275 53.5442 36.2519 53.3615C36.1762 53.1788 36.1565 52.9778 36.195 52.7838C36.2336 52.5899 36.3288 52.4117 36.4687 52.2719C36.6563 52.0849 36.9104 51.9798 37.1753 51.9799C37.4402 51.98 37.6943 52.0851 37.8819 52.2723L37.8821 52.272Z" fill="#05A84B"/>
<path d="M34.0649 43.9459C34.0649 44.0902 34.0933 44.233 34.1485 44.3663C34.2037 44.4996 34.2846 44.6207 34.3865 44.7227C34.4885 44.8248 34.6096 44.9057 34.7428 44.9609C34.876 45.0161 35.0188 45.0446 35.1631 45.0446C35.3073 45.0446 35.4501 45.0162 35.5833 44.961C35.7166 44.9058 35.8377 44.8249 35.9396 44.7229C36.0416 44.6209 36.1225 44.4998 36.1777 44.3665C36.2329 44.2332 36.2614 44.0904 36.2614 43.9461L36.2614 41.2186C36.2614 40.9272 36.1457 40.6478 35.9397 40.4417C35.7338 40.2357 35.4544 40.1199 35.1631 40.1199C34.8719 40.1199 34.5925 40.2356 34.3865 40.4417C34.1806 40.6477 34.0648 40.9271 34.0648 41.2185L34.0649 43.9459Z" fill="#EC0000"/>
<path d="M40.8231 26.1687C40.823 26.4601 40.9387 26.7395 41.1447 26.9455C41.3507 27.1516 41.63 27.2673 41.9213 27.2673C42.2126 27.2673 42.4919 27.1516 42.6979 26.9456C42.9039 26.7396 43.0196 26.4602 43.0196 26.1688L43.0195 23.4413C43.0195 23.15 42.9038 22.8705 42.6979 22.6645C42.492 22.4585 42.2126 22.3427 41.9214 22.3427C41.6301 22.3427 41.3508 22.4584 41.1448 22.6644C40.9388 22.8704 40.8231 23.1498 40.823 23.4411L40.8231 26.1687Z" fill="#EC0000"/>
<path d="M25.5372 31.976C25.5373 31.6846 25.4216 31.4052 25.2156 31.1992C25.0096 30.9931 24.7303 30.8774 24.439 30.8774C24.1477 30.8773 23.8684 30.9931 23.6624 31.1991C23.4564 31.4051 23.3407 31.6845 23.3407 31.9759L23.3407 34.7033C23.3407 34.9946 23.4564 35.274 23.6623 35.4801C23.8682 35.6861 24.1476 35.8019 24.4388 35.8019C24.7301 35.8019 25.0095 35.6862 25.2154 35.4802C25.4214 35.2742 25.5371 34.9948 25.5372 34.7035L25.5372 31.976Z" fill="#EC0000"/>
<path d="M30.3537 49.7704C30.3537 49.6261 30.3253 49.4833 30.2702 49.35C30.215 49.2167 30.1341 49.0956 30.0321 48.9936C29.9302 48.8916 29.8091 48.8106 29.6759 48.7554C29.5426 48.7002 29.3998 48.6718 29.2556 48.6717C29.1114 48.6717 28.9686 48.7001 28.8353 48.7553C28.7021 48.8105 28.581 48.8914 28.479 48.9934C28.377 49.0954 28.2961 49.2165 28.2409 49.3498C28.1857 49.4831 28.1573 49.6259 28.1573 49.7702L28.157 52.4975C28.157 52.7888 28.2727 53.0683 28.4786 53.2743C28.6846 53.4803 28.9639 53.5961 29.2552 53.5961C29.5465 53.5961 29.8259 53.4804 30.0318 53.2744C30.2378 53.0683 30.3535 52.7889 30.3535 52.4976L30.3537 49.7704Z" fill="#EC0000"/>
</svg>
