<svg width="16" height="17" viewBox="0 0 16 17" fill="none" xmlns="http://www.w3.org/2000/svg">
<path d="M8 0.5C3.58125 0.5 0 4.08125 0 8.5C0 12.9187 3.58125 16.5 8 16.5C12.4187 16.5 16 12.9187 16 8.5C16 4.08125 12.4187 0.5 8 0.5ZM8 4.5C8.55219 4.5 9 4.94781 9 5.5C9 6.05219 8.55219 6.5 8 6.5C7.44781 6.5 7 6.05312 7 5.5C7 4.94688 7.44688 4.5 8 4.5ZM9.25 12.5H6.75C6.3375 12.5 6 12.1656 6 11.75C6 11.3344 6.33594 11 6.75 11H7.25V9H7C6.58594 9 6.25 8.66406 6.25 8.25C6.25 7.83594 6.5875 7.5 7 7.5H8C8.41406 7.5 8.75 7.83594 8.75 8.25V11H9.25C9.66406 11 10 11.3359 10 11.75C10 12.1641 9.66562 12.5 9.25 12.5Z" fill="#00240F"/>
</svg>
