<svg width="110" height="20" viewBox="0 0 110 20" fill="none" xmlns="http://www.w3.org/2000/svg">
<path d="M5.16229 2.57011C7.23866 2.57011 8.84668 3.01462 9.98634 3.90365C11.1416 4.79269 11.7192 6.12623 11.7192 7.90429C11.7192 9.76318 11.1416 11.1614 9.98634 12.0989C8.83107 13.0203 7.2933 13.4809 5.37305 13.4809H3.47621V19.3243H0.385071V2.57011H5.16229ZM5.13887 11.0806C6.24731 11.0806 7.08254 10.8462 7.64457 10.3774C8.20659 9.89249 8.4876 9.06812 8.4876 7.90429C8.4876 5.9161 7.37136 4.922 5.13887 4.922H3.47621V11.0806H5.13887Z" fill="#00240F"/>
<path d="M17.1245 6.49801V19.3243H14.1271V6.49801H17.1245ZM15.6024 0C16.1644 0 16.6172 0.185888 16.9606 0.557665C17.3197 0.913278 17.4992 1.35779 17.4992 1.89121C17.4992 2.42463 17.3197 2.86915 16.9606 3.22476C16.6172 3.58037 16.1644 3.75818 15.6024 3.75818C15.056 3.75818 14.6032 3.58037 14.2442 3.22476C13.9007 2.86915 13.729 2.42463 13.729 1.89121C13.729 1.35779 13.9007 0.913278 14.2442 0.557665C14.6032 0.185888 15.056 0 15.6024 0Z" fill="#00240F"/>
<path d="M28.7919 6.49801V8.72867L22.7969 16.8997H28.909L28.6045 19.3243H19.3545V17.0936L25.3729 8.92264H19.8697V6.49801H28.7919Z" fill="#00240F"/>
<path d="M39.3116 6.49801V8.72867L33.3166 16.8997H39.4286L39.1242 19.3243H29.8742V17.0936L35.8926 8.92264H30.3894V6.49801H39.3116Z" fill="#00240F"/>
<path d="M50.5888 15.9298C50.5888 16.4309 50.6591 16.8027 50.7996 17.0452C50.9557 17.2714 51.1977 17.4493 51.5255 17.5786L50.8933 19.6395C50.1907 19.5748 49.6131 19.397 49.1604 19.1061C48.7232 18.8151 48.3876 18.3706 48.1534 17.7725C47.7319 18.4191 47.2011 18.904 46.561 19.2273C45.9365 19.5344 45.234 19.688 44.4534 19.688C43.2201 19.688 42.2443 19.3243 41.5262 18.5969C40.808 17.8695 40.449 16.9158 40.449 15.7358C40.449 14.3457 40.9329 13.287 41.9009 12.5596C42.8844 11.816 44.2817 11.4443 46.0926 11.4443H47.6382V10.7169C47.6382 9.89249 47.4509 9.31866 47.0762 8.99538C46.7171 8.65593 46.1317 8.48621 45.3198 8.48621C44.4144 8.48621 43.3215 8.7125 42.0414 9.1651L41.3388 7.05567C42.8844 6.44143 44.3831 6.13431 45.835 6.13431C49.0042 6.13431 50.5888 7.60526 50.5888 10.5471V15.9298ZM45.2496 17.4331C46.2644 17.4331 47.0606 16.9078 47.6382 15.8571V13.2627H46.3971C44.4612 13.2627 43.4933 14.0063 43.4933 15.4934C43.4933 16.1076 43.6416 16.5845 43.9382 16.9239C44.2348 17.2634 44.672 17.4331 45.2496 17.4331Z" fill="#00240F"/>
<path d="M70.5618 2.57011L70.2339 5.11597H66.0187V19.3243H62.9042V5.11597H58.5485V2.57011H70.5618Z" fill="#00240F"/>
<path d="M75.4859 6.49801V19.3243H72.4884V6.49801H75.4859ZM73.9637 0C74.5258 0 74.9785 0.185888 75.322 0.557665C75.681 0.913278 75.8606 1.35779 75.8606 1.89121C75.8606 2.42463 75.681 2.86915 75.322 3.22476C74.9785 3.58037 74.5258 3.75818 73.9637 3.75818C73.4173 3.75818 72.9646 3.58037 72.6055 3.22476C72.2621 2.86915 72.0903 2.42463 72.0903 1.89121C72.0903 1.35779 72.2621 0.913278 72.6055 0.557665C72.9646 0.185888 73.4173 0 73.9637 0Z" fill="#00240F"/>
<path d="M92.2349 6.13431C93.234 6.13431 94.0302 6.48993 94.6235 7.20115C95.2167 7.89621 95.5134 8.84182 95.5134 10.038V19.3243H92.5159V10.5229C92.5159 9.14894 92.0632 8.46196 91.1577 8.46196C90.6737 8.46196 90.2522 8.6236 89.8931 8.94689C89.5497 9.25401 89.1906 9.73893 88.8159 10.4017V19.3243H85.8184V10.5229C85.8184 9.14894 85.3657 8.46196 84.4602 8.46196C83.9606 8.46196 83.5313 8.6236 83.1722 8.94689C82.8288 9.25401 82.4697 9.73893 82.095 10.4017V19.3243H79.0975V6.49801H81.6969L81.9311 8.171C82.8678 6.81321 84.0621 6.13431 85.514 6.13431C86.2321 6.13431 86.8488 6.32829 87.364 6.71623C87.8948 7.088 88.2773 7.61334 88.5115 8.29224C89.011 7.59717 89.5575 7.06376 90.1507 6.69198C90.7596 6.3202 91.4543 6.13431 92.2349 6.13431Z" fill="#00240F"/>
<path d="M109.157 12.6081C109.157 12.7697 109.133 13.19 109.087 13.8689H101.312C101.405 15.1135 101.718 16.0026 102.249 16.536C102.779 17.0694 103.482 17.3361 104.356 17.3361C104.903 17.3361 105.418 17.2472 105.902 17.0694C106.386 16.8754 106.901 16.5845 107.447 16.1965L108.688 17.9665C107.315 19.1142 105.785 19.688 104.099 19.688C102.209 19.688 100.75 19.0899 99.7194 17.8938C98.7046 16.6976 98.1973 15.065 98.1973 12.996C98.1973 11.6867 98.4158 10.5148 98.853 9.4803C99.2901 8.42963 99.9224 7.61334 100.75 7.03143C101.577 6.43335 102.561 6.13431 103.7 6.13431C105.433 6.13431 106.776 6.70814 107.728 7.8558C108.681 8.9873 109.157 10.5714 109.157 12.6081ZM106.183 11.711C106.183 9.46414 105.379 8.34073 103.771 8.34073C103.037 8.34073 102.459 8.6236 102.038 9.18935C101.632 9.73893 101.39 10.628 101.312 11.8564H106.183V11.711Z" fill="#00240F"/>
</svg>
