<svg width="17" height="16" viewBox="0 0 17 16" fill="none" xmlns="http://www.w3.org/2000/svg">
<path d="M7.91663 3.75C7.91663 3.33437 8.251 3 8.66663 3C9.08225 3 9.41663 3.33437 9.41663 3.75V7.6L12.0823 9.375C12.426 9.60625 12.5198 10.0719 12.2635 10.4156C12.0604 10.7594 11.5948 10.8531 11.251 10.5969L8.251 8.59688C8.04163 8.48438 7.91663 8.25 7.91663 7.97188V3.75ZM8.66663 0C13.0854 0 16.6666 3.58125 16.6666 8C16.6666 12.4187 13.0854 16 8.66663 16C4.24788 16 0.666626 12.4187 0.666626 8C0.666626 3.58125 4.24788 0 8.66663 0ZM2.16663 8C2.16663 11.5906 5.076 14.5 8.66663 14.5C12.2573 14.5 15.1666 11.5906 15.1666 8C15.1666 4.40938 12.2573 1.5 8.66663 1.5C5.076 1.5 2.16663 4.40938 2.16663 8Z" fill="#6D6B6B"/>
</svg>
