<svg width="16" height="15" viewBox="0 0 16 15" fill="none" xmlns="http://www.w3.org/2000/svg">
<path d="M7.625 2.125L7.97188 2.5L8.34688 2.12562C9.39375 1.10531 10.8438 0.640937 12.2688 0.878125C14.4219 1.23687 16 3.1 16 5.28438V5.46562C16 6.7625 15.4625 8.00312 14.5125 8.8875L8.86563 14.1594C8.63125 14.3781 8.32187 14.5 8 14.5C7.67812 14.5 7.36875 14.3781 7.13438 14.1594L1.48719 8.8875C0.538437 8.00312 0 6.7625 0 5.46562V5.28438C0 3.1 1.57875 1.23687 3.73125 0.878125C5.12813 0.640937 6.60625 1.10531 7.625 2.125C7.59688 2.125 7.625 2.12531 7.625 2.125ZM7.97188 4.62187L6.56563 3.15937C5.8875 2.50875 4.925 2.2 3.97813 2.3575C2.54844 2.59594 1.5 3.83438 1.5 5.28438V5.46562C1.5 6.34687 1.86594 7.19062 2.51062 7.79062L8 12.9156L13.4906 7.79062C14.1344 7.19062 14.5 6.34687 14.5 5.46562V5.28438C14.5 3.83438 13.45 2.59594 12.0219 2.3575C11.075 2.2 10.1125 2.50875 9.43437 3.15937L7.97188 4.62187Z" fill="#05A84B"/>
</svg>
