<svg width="21" height="24" viewBox="0 0 21 24" fill="none" xmlns="http://www.w3.org/2000/svg">
<path d="M9.26563 23.4607C6.54688 20.4435 0.5 13.1309 0.5 9.02335C0.5 4.03983 4.97708 0 10.5 0C16.0208 0 20.5 4.03983 20.5 9.02335C20.5 13.1309 14.4063 20.4435 11.7344 23.4607C11.0938 24.1798 9.90625 24.1798 9.26563 23.4607ZM10.5 12.0311C12.3385 12.0311 13.8333 10.6823 13.8333 9.02335C13.8333 7.36437 12.3385 6.01557 10.5 6.01557C8.66146 6.01557 7.16667 7.36437 7.16667 9.02335C7.16667 10.6823 8.66146 12.0311 10.5 12.0311Z" fill="#05A84B"/>
</svg>
